# xmcd
#
# Track frame offsets:
#	150
#	17198
#	29917
#	45545
#	61443
#	75636
#	88672
#	105316
#	119021
#	154185
#	181753
#	196873
#	227433
#	253594
#	271252
#	293031
#	308031
#
# Disc length: 4366 seconds
#
# Revision: 1
# Processed by: cddbd v1.5.2PL0 Copyright (c) Steve Scherf et al.
# Submitted via: EasyCDDAExtractor 16.0.8.2
#
DISCID=df110c11
DTITLE=Άνευ ερμηνευτού - Σόλο μπουζούκι 1
DYEAR=2014
DGENRE=Οργανική μπουζούκι
TTITLE0=Χορός του Ζορμπά [Δημ. Χριστοδούλου, μουσ. Μ.Θεοδωράκης]
TTITLE1=Φραγκοσυριανή [Στέλ. Ζαφειρίου, μουσ. Μ. Βαμβακάρης]
TTITLE2=Ταξίμι ζεϊμπέκικο [Στέλ. Βαμβακάρης, μουσ. Μ. Βαμβακάρης]
TTITLE3=Θύτες και θύματα [Σπ. Ιωαννίδης, μουσ. ιδίου]
TTITLE4=Σε ρυθμό χασάπικου [Λάκης Καρνέζης, μουσ. ιδίου]
TTITLE5=Σέρβικο [Γ. Μητσάκης, μουσ. ιδίου]
TTITLE6=Σήκω χόρεψε συρτάκι [Γ. Ζαμπέτας, μουσ. ιδίου]
TTITLE7=Φλόγα [Μαν. Χιώτης, μουσ. ιδίου]
TTITLE8=Για το χατήρι του Ζορμπά [Ιορδ. Τσομίδης, μουσ. ιδίου]
TTITLE9=Το σόλο του Μπέμπη [Δημ. Στεργίου ή Μπέμπης, μουσ. ιδίου]
TTITLE10=Ανατολίτικη φαντασία [Γ. Σταματίου ή Σπόρος, μουσ. ιδίου]
TTITLE11=Καμηλιέρικο ταξίμι [Χάρης Λεμονόπουλος, μουσ. ιδίου]
TTITLE12=Το χασάπικο του Τατασσόπουλου [Χ.Τατασσόπουλος, μουσ. ιδίου]
TTITLE13=Το σόλο του Ανέστου [Αν. Αθανασίου ή Γύφτος, μουσ. ιδίου]
TTITLE14=Αυτοσχεδιασμός χιτζάζ [Βαγγέλης Λιόλιος, μουσ. ιδίου]
TTITLE15=Χασάπικος χορός [Λ.Καρνέζης-Κ.Παπαδόπουλος, μουσ. ιδίων]
TTITLE16=Το συρτάκι του Πειραιά [Δημ. Μαργιολάς, μουσ. Μιχ. Κουμπιός]
EXTD=
EXTT0=
EXTT1=
EXTT2=
EXTT3=
EXTT4=
EXTT5=
EXTT6=
EXTT7=
EXTT8=
EXTT9=
EXTT10=
EXTT11=
EXTT12=
EXTT13=
EXTT14=
EXTT15=
EXTT16=
PLAYORDER=
